<svg role="img" viewBox="0 0 24 24" xmlns="http://www.w3.org/2000/svg"><style>path { fill: #050505; }</style><title>BitTorrent</title><path d="M12.0002.0014C5.3735 4e-4.001 5.3718.0 11.9984a11.9986 11.9986.0 001.7006 6.1593.132.132.0 00.1128.0384c.0288.0.048-.0696.048-.1104a.739.739.0 00-.0336-.1296 22.14 22.14.0 01-.4224-2.2941 9.8389 9.8389.0 01.4272-3.866c1.1014-3.3956 3.3332-5.6993 6.664-6.9376a10.302 10.302.0 013.398-.5951.7823.7823.0 01.8567.763c0 .4488-.3431.7368-.8495.7656a12.853 12.853.0 00-1.6078.1656A8.6918 8.6918.0 005.4298 8.5972C3.3468 10.8169 2.55 13.4566 3.03 16.4539a8.6846 8.6846.0 002.4454 4.785 8.9414 8.9414.0 006.3688 2.7597h.156a11.9507 11.9507.0 005.613-1.3918h-5.5938a8.3988 8.3988.0 01-1.4086-.1296c-4.1387-.7467-6.915-4.673-6.2393-8.8238.5627-3.5271 3.4722-6.2073 7.0336-6.4793a7.6407 7.6407.0 012.1597.1368.7487.7487.0 01.6168.876.7847.7847.0 01-.96.6023 6.0836 6.0836.0 00-.8014-.1152 6.328 6.328.0 00-2.899.504c-2.5052 1.0803-4.0095 3.6719-3.705 6.3832.3566 3.1366 3.0056 5.5091 6.1624 5.5194h6.9904c.6791.0.84.0144 1.1375-.24.382-.3525.742-.7284 1.0775-1.1255h-9.3302a4.3483 4.3483.0 01-2.0733-.516c-2.4037-1.1787-3.3968-4.0828-2.218-6.4865s4.0828-3.3968 6.4866-2.218c.1195.0586.2365.122.3508.1903a.7511.7511.0 01.3168 1.044A.7655.7655.0 0113.6512 12c-1.5988-.9125-3.6346-.356-4.547 1.2428a3.3332 3.3332.0 00-.3964 2.1792c.2433 1.6186 1.6388 2.8127 3.2756 2.8029 3.3596.0336 6.7193.0 10.0789.0a.4224.4224.0 00.2807-.144c3.3584-5.7126 1.45-13.0661-4.2626-16.4245a11.9986 11.9986.0 00-6.0802-1.655z"/></svg>