<svg role="img" viewBox="0 0 24 24" xmlns="http://www.w3.org/2000/svg"><style>path { fill: #512BD4; }</style><title>Blazor</title><path d="M23.8337 8.1013a13.9123 13.9123.0 01-13.6424 11.72 10.1053 10.1053.0 01-1.994-.121 6.111 6.111.0 01-5.0824-5.7607 5.9344 5.9344.0 0111.867-.0838c.025.9835-.4011 1.8464-1.277 1.8713-.9356.0-1.3742-.6677-1.3742-1.5674v-2.5001a1.5313 1.5313.0 00-1.5196-1.5328H8.7152a3.6481 3.6481.0 102.6948 6.0794l.0733-.1093.0734.1213a2.5807 2.5807.0 002.2007 1.0479 2.9088 2.9088.0 002.6947-3.0406 7.912 7.912.0 00-.217-1.9324A7.4043 7.4043.0 001.5956 13.8964a7.4971 7.4971.0 007.307 7.4043s.549.05 1.1677.0357a15.8029 15.8029.0 008.4747-2.5283c.036-.025.0719.025.048.0614A12.4392 12.4392.0 018.9029 22.832 8.7442 8.7442.0 01.003 13.8603a9.049 9.049.0 013.6349-7.2471 8.8634 8.8634.0 015.229-1.7262h2.813a7.9145 7.9145.0 005.8386-2.5777.1093.1093.0 01.0594-.034.1115.1115.0 01.1195.0522.113.113.0 01.0155.0672A7.9345 7.9345.0 0116.4855 5.944a.1075.1075.0 00-.0132.0609.1098.1098.0 00.0724.0945.109.109.0 00.0619.0033 8.5054 8.5054.0 005.9134-4.876.1554.1554.0 01.0546-.0527.1497.1497.0 01.147.0.1535.1535.0 01.0546.0527 10.779 10.779.0 011.0575 6.8746zm-14.9383 3.527a2.188 2.188.0 102.1877 2.1878v-2.0425a.1577.1577.0 00-.1497-.1497z"/></svg>