<svg role="img" viewBox="0 0 24 24" xmlns="http://www.w3.org/2000/svg"><style>path { fill: #0F2B46; }</style><title>DeepL</title><path d="m9.811 8.256-4.36-2.521a.72.72.0 00-.727.0l-4.36 2.53A.73.73.0 000 8.892v5.052a.73.73.0 00.364.633l4.36 2.524.033.019 2.147 1.244-.006-1.093.004-.607.002.01v-.204c0-.122.063-.23.157-.297l.14-.08.067-.037h-.004l2.547-1.474a.732.732.0 00.364-.634V8.89a.732.732.0 00-.364-.634zm-5.225 5.138a.757.757.0 01-.212.734.747.747.0 01-1.045.0.753.753.0 010-1.094.747.747.0 011.083.04l1.765-1.016.364.205zm3.06-1.28a.747.747.0 01-1.045.0.756.756.0 01-.196-.784l-.007.004-1.99-1.152-.03.03a.747.747.0 01-1.045.0.753.753.0 010-1.094.747.747.0 011.046.0c.209.2.278.487.207.746l2.005 1.167.01-.01a.747.747.0 011.046.0.757.757.0 010 1.093zm14.568-2.237h.469v2.114H24v.393h-1.786zm-1.444.575c.186.0.353.04.5.12a.88.88.0 01.349.346c.083.149.125.318.125.512.0.195-.042.366-.125.517a.88.88.0 01-.35.345 1.01 1.01.0 01-.5.12c-.259.0-.464-.085-.614-.256v.928h-.45v-2.611h.429v.25a.717.717.0 01.274-.204.885.885.0 01.362-.067zm-.05 1.574a.533.533.0 00.405-.165.588.588.0 00.163-.433.588.588.0 00-.163-.432.544.544.0 00-.406-.166.563.563.0 00-.495.283.641.641.0 00-.075.315c0 .12.025.224.075.316a.538.538.0 00.495.282zm-1.447-.587c0 .03-.003.075-.007.132h-1.507c.027.14.094.253.205.336a.696.696.0 00.418.12.707.707.0 00.522-.206l.24.276a.81.81.0 01-.327.233c-.132.052-.28.079-.446.079-.21.0-.397-.042-.558-.125a.91.91.0 01-.374-.348 1.01 1.01.0 01-.13-.508c0-.188.042-.353.126-.501a.911.911.0 01.355-.352c.15-.083.322-.125.51-.125s.354.042.5.125a.849.849.0 01.345.347c.086.15.127.322.127.517zm-.973-.63a.53.53.0 00-.548.466h1.092a.525.525.0 00-.544-.466zm-1.267.63c0 .03-.002.075-.006.132h-1.51c.027.14.094.253.205.336.113.082.25.12.418.12a.707.707.0 00.523-.206l.24.276a.81.81.0 01-.328.233c-.132.052-.28.079-.445.079-.211.0-.398-.042-.559-.125a.91.91.0 01-.374-.348 1.01 1.01.0 01-.13-.508c0-.188.042-.353.126-.501a.911.911.0 01.355-.352c.151-.083.322-.125.513-.125a.98.98.0 01.5.125.849.849.0 01.345.347c.085.15.127.322.127.517zm-.972-.63a.53.53.0 00-.548.466h1.091a.525.525.0 00-.543-.466zm-3.766-.932h1.102c.268.0.508.052.717.157.21.102.37.249.485.44.115.19.174.409.174.657.0.25-.059.469-.174.66a1.182 1.182.0 01-.485.44 1.598 1.598.0 01-.717.155h-1.102zm1.081 2.114c.184.0.347-.036.485-.105a.754.754.0 00.324-.3.88.88.0 00.115-.457.859.859.0 00-.115-.451.73.73.0 00-.324-.301 1.056 1.056.0 00-.485-.107h-.613v1.719h.613z"/></svg>