<svg role="img" viewBox="0 0 24 24" xmlns="http://www.w3.org/2000/svg"><style>path { fill: #BF2E1A; }</style><title>Dota 2</title><path d="M9.817 23.607 9.471 23.313 9.003 23.273C8.419 23.225 8.147 23.172 7.817 23.041L7.559 22.938 7.281 23.048C7.045 23.143 6.467 23.229 6.028 23.236 6.004 23.236 5.964 23.18 5.939 23.111 5.911 23.041 5.862 22.974 5.824 22.961 5.789 22.949 5.527 23.007 5.237 23.094L4.712 23.252 4.523 23.161C4.285 23.045 4.185 23.047 3.787 23.168 3.484 23.262 3.446 23.264 3.203 23.212 2.84 23.136 2.537 23.141 1.854 23.238 1.11 23.344 1.094 23.344.875 23.194.728 23.094.648 23.069.469 23.069.266 23.069.244 23.06.221 22.965.206 22.906.225 22.787.264 22.688.376 22.41.42 21.736.432 20.125L.444 18.62.655 18.635.863 18.65.895 17.78C.911 17.302.927 16.611.93 16.246L.935 15.586.823 15.506C.518 15.283.532 15.315.405 14.588.339 14.211.274 13.658.259 13.358.234 12.826.236 12.811.334 12.7L.434 12.586.682 12.799C.82 12.916.937 12.993.948 12.969c.036-.113-.077-1.461-.135-1.631C.775 11.238.747 11.101.747 11.03.747 10.962.679 10.778.594 10.618l-.151-.289.051-.513C.561 9.136.475 8.636.19 8.034L.065 7.763.144 7.09.228 6.416.14 6.067.049 5.717.154 5.326.255 4.933.14 4.553.021 4.174l.143-.4c.141-.389.144-.41.141-1.044C.303 2.016.228 1.551.08 1.365-.047 1.203-.026 1.092.163.919.253.834.328.726.328.681.328.612.359.599.549.595c.12.0.49-.032.823-.07L1.979.452l.794.117C3.565.684 3.566.684 4.652.638L5.74.591l.257.155.26.153L7.312.884 8.368.869 8.724.74C8.918.669 9.229.545 9.414.461c.182-.084.513-.197.73-.257l.398-.105L11.056.261 11.57.425 12.014.276l.442-.149.477.158C13.196.371 13.684.583 14.022.757L14.633 1.069 15.273 1.051C15.758 1.036 15.924 1.018 15.95.973 15.97.942 16.031.758 16.083.566L16.178.215l.605.02C17.236.251 17.642.299 18.384.429L19.379.605l.259-.104C19.778.444 20.046.375 20.233.351 20.546.309 20.6.314 21.027.422c.398.1.535.115 1.082.115C22.454.537 22.812.522 22.907.506 23.07.478 23.097.489 23.428.728 23.621.866 23.792 1.001 23.807 1.03 23.824 1.057 23.86 1.203 23.884 1.354L23.93 1.632l-.209.396C23.604 2.246 23.507 2.443 23.507 2.466 23.507 2.489 23.555 2.527 23.611 2.554 23.668 2.579 23.764 2.677 23.826 2.771L23.937 2.941 23.912 5.226C23.897 6.483 23.872 7.604 23.858 7.715L23.831 7.919 23.486 7.897 23.142 7.87 23.113 8.061C23.097 8.164 23.084 8.353 23.084 8.485 23.084 8.677 23.054 8.778 22.924 9.031l-.163.311L22.851 9.471C22.901 9.543 23.072 9.736 23.231 9.901L23.523 10.206 23.434 10.529 23.344 10.854 23.451 11.542C23.575 12.369 23.566 12.577 23.363 13.293 23.282 13.58 23.217 13.846 23.217 13.886 23.217 13.961 23.272 13.98 23.644 14.031 23.809 14.052 23.844 14.072 23.844 14.147 23.844 14.196 23.87 15.251 23.904 16.492 24.011 20.567 24.021 21.456 23.971 22.38 23.944 22.862 23.913 23.262 23.904 23.271 23.894 23.28 23.563 23.147 23.166 22.976L22.443 22.668 22.131 22.803C21.809 22.942 21.777 22.978 21.735 23.245 21.706 23.422 21.728 23.414 20.935 23.576L20.468 23.672 20.014 23.52C19.594 23.379 19.537 23.369 19.206 23.391 18.959 23.406 18.789 23.394 18.644 23.351 18.436 23.292 18.436 23.292 18.087 23.453L17.735 23.612h-1.3C15.066 23.61 14.784 23.632 13.841 23.807 13.189 23.927 12.96 23.922 11.819 23.785L11.217 23.711 10.796 23.807C10.562 23.861 10.326 23.903 10.27 23.901 10.202 23.901 10.046 23.8 9.819 23.607H9.817zM7.284 19.918C8.289 19.539 9.118 19.223 9.123 19.216 9.136 19.202 5.206 15.39 4.684 14.909c-.145-.134-.275-.237-.285-.227C4.39 14.693 4.07 15.547 3.69 16.577c-.42 1.138-.679 1.899-.658 1.931C3.057 18.55 5.424 20.599 5.451 20.605 5.454 20.605 6.279 20.296 7.284 19.918zm13.512-2.089C21.319 16.564 21.732 15.519 21.718 15.504 21.699 15.483 11.888 8.858 5.02 4.226L4.469 3.855l-.9.407C3.072 4.484 2.673 4.687 2.68 4.709 2.69 4.737 6.011 8.219 10.064 12.449l7.368 7.692L18.638 20.133 19.847 20.125 20.796 17.829zM19.434 6.972C19.607 6.01 19.75 5.191 19.75 5.151 19.75 5.108 19.497 4.902 19.074 4.605 18.702 4.343 18.373 4.115 18.344 4.096 18.291 4.063 14.442 5.104 14.447 5.149 14.451 5.179 19.091 8.748 19.107 8.731 19.115 8.725 19.261 7.932 19.434 6.972z"/></svg>