<svg role="img" viewBox="0 0 24 24" xmlns="http://www.w3.org/2000/svg"><style>path { fill: #54BCAB; }</style><title>Dovecot</title><path d="M8.784 8.39C8.581 8.391 8.382 8.458 8.22 8.582L.118 14.772c-.158.125-.158.366.0.49l.339.253C.61 15.635.825 15.635.98 15.515l4.018-3.061C5.22 12.286 5.526 12.286 5.748 12.454l2.659 2.033C8.628 14.655 8.934 14.655 9.156 14.487l3.515-2.683c.231-.168000000000001.231-.513.0-.682L9.349 8.582C9.187 8.458 8.988 8.39 8.784 8.39zm9.298.0C17.878 8.39 17.68 8.458 17.519 8.582L9.417 14.778C9.255 14.901 9.255 15.144 9.417 15.267L9.752 15.522C9.908 15.638 10.124 15.638 10.279 15.522l4.635-3.533C15.136 11.823 15.442 11.823 15.662 11.989l4.527 3.452C20.41 15.61 20.718 15.61 20.939 15.441l2.889-2.213C24.057 13.056 24.057 12.712 23.828 12.54L18.647 8.582C18.485 8.458 18.286 8.39 18.082 8.39z"/></svg>