<svg role="img" viewBox="0 0 24 24" xmlns="http://www.w3.org/2000/svg"><style>path { fill: #1E384B; }</style><title>Ecovacs</title><path d="M19.066 19.071 19.065 19.07C17.256 20.88 14.755 22 11.994 22c-2.761.0-5.262-1.12-7.07-2.93V19.071C4.743 18.89 4.492 18.779 4.217 18.779c-.261.0-.495.100000000000001-.674.262C3.343 19.223 3.217 19.485 3.217 19.779 3.217 20.049 3.325 20.295 3.499 20.475L3.51 20.485 3.521 20.496C5.692 22.661 8.686 24 11.994 24c3.306.0 6.301-1.338 8.472-3.502L20.48 20.484 20.491 20.472C20.665 20.293 20.772 20.048 20.772 19.779 20.772 19.485 20.645 19.223 20.445 19.041 20.267 18.879 20.031 18.779 19.773 18.779 19.496 18.779 19.247 18.89 19.066 19.071zM15.394 14H11.395c-1.105.0-2-.895-2-2 0-1.104.895-1.999 2-1.999h3.999L16.794 8H11.395c-2.21.0-4.001 1.791-4.001 4s1.791 4 4.001 4h5.399l-1.4-2zm-.4-3L14.963 11.001V11H11.994C11.441 11 10.995 11.448 10.995 12 10.995 12.553 11.441 13 11.994 13h2.969V12.998L14.994 13c.552.0 1-.446999999999999 1-1 0-.552-.448-1-1-1zM11.977.0C8.68.003 5.69 1.339 3.523 3.497c-.181.18-.295.429-.295.705C3.227 4.496 3.353 4.758 3.553 4.941c.177.162.413.263.672.264C4.501 5.206 4.751 5.094 4.933 4.915V4.914L4.934 4.913C6.748 3.107 9.25 1.994 12.011 2 14.772 2.007 17.27 3.13 19.075 4.945V4.944c.181000000000001.181.43.295.706.296C20.041 5.24 20.277 5.14 20.455 4.978 20.656 4.796 20.783 4.535 20.783 4.242 20.784 3.965 20.673 3.716 20.493 3.536L20.492 3.534 20.491 3.533C18.325 1.357 15.328.007 12.015.0H11.977z"/></svg>