<svg role="img" viewBox="0 0 24 24" xmlns="http://www.w3.org/2000/svg"><style>path { fill: #F9AB00; }</style><title>Google Colab</title><path d="M16.9414 4.9757a7.033 7.033.0 00-4.9308 2.0646 7.033 7.033.0 00-.1232 9.8068l2.395-2.395a3.6455 3.6455.0 015.1497-5.1478l2.397-2.3989a7.033 7.033.0 00-4.8877-1.9297zM7.07 4.9855A7.033 7.033.0 002.1822 6.9171l2.3911 2.3911a3.6434 3.6434.0 015.0227.1271l1.7341-2.9737-.0997-.0802A7.033 7.033.0 007.07 4.9855zm15.0093 2.1721-2.3892 2.3911a3.6455 3.6455.0 01-5.1497 5.1497l-2.4067 2.4068a7.0362 7.0362.0 009.9456-9.9476zM1.932 7.1674A7.033 7.033.0 001.93 16.849l2.397-2.397a3.6434 3.6434.0 01-.004-4.8916zm7.664 7.4235c-1.38 1.3816-3.5863 1.411-5.0168.1134l-2.397 2.395c2.4693 2.3328 6.263 2.5753 9.0072.5455l.1368-.1115z"/></svg>