<svg role="img" viewBox="0 0 24 24" xmlns="http://www.w3.org/2000/svg"><style>path { fill: #00AFF0; }</style><title>GroupMe</title><path d="M11.1597 6.57419h1.6801V8.16898H11.1597V6.57419zM18.1997.0H5.80011C3.14898.0 1 2.03979 1 4.55577V16.3243C1 18.8402 3.14898 20.88 5.80011 20.88H9.92715L11.9786 24l2.052-3.12h4.1691C20.8506 20.88 23 18.8402 23 16.3243V4.55574C23 2.03976 20.8506.0 18.1997.0zM7.56833 8.16895H9.34755V6.57416H7.56833V4.85447H9.34755V3.16587H11.1597v1.6886h1.6801V3.16587h1.8121v1.6886h1.7789V6.57416H14.6519V8.16895h1.7789V9.88852H14.6519V11.5772H12.8398V9.88852H11.1597V11.5772H9.34755V9.88852H7.56833V8.16895zM20.3122 13.4321s-2.392 4.2759-8.0716 4.2759C12.1619 17.708 12.0843 17.707 12.007 17.7057 11.9299 17.707 11.8522 17.708 11.7737 17.708c-5.67954.0-8.07159-4.2759-8.07159-4.2759S3.54729 13.1536 3.54729 12.8534C3.53754 12.6368 3.64915 12.3263 3.9421 12.1433 4.105 12.0417 4.259 11.9914 4.40179 11.9757 5.08566 11.9069 5.48202 12.3295 5.80794 12.8121c.35994.5326 2.43651 2.8659 6.19906 2.9551 3.7628-.0892 5.8394-2.4225 6.1993-2.9551C18.5322 12.3295 18.9429 11.9062 19.6125 11.9757 19.7553 11.9914 19.9094 12.0417 20.0722 12.1433 20.3652 12.3263 20.4792 12.5839 20.469 12.8532 20.446 13.2494 20.3122 13.4321 20.3122 13.4321z"/></svg>