<svg role="img" viewBox="0 0 24 24" xmlns="http://www.w3.org/2000/svg"><style>path { fill: #8C5AFF; }</style><title>Hyperskill</title><path d="M22 22.6A1.4 1.4.0 0120.6 24h-1.2A1.4 1.4.0 0118 22.6V1.4A1.4 1.4.0 0119.4.0h1.2A1.4 1.4.0 0122 1.4zm-8-14A1.4 1.4.0 0112.6 10h-1.2A1.4 1.4.0 0110 8.6V3.4A1.4 1.4.0 0111.4 2h1.2A1.4 1.4.0 0114 3.4zm-8.001 8a1.4 1.4.0 01-1.4 1.4H3.4A1.4 1.4.0 012 16.6V7.4A1.4 1.4.0 013.4 6h1.2A1.4 1.4.0 016 7.4v9.2zm8.001 4A1.4 1.4.0 0112.6 22h-1.2A1.4 1.4.0 0110 20.6v-5.2a1.4 1.4.0 011.4-1.4h1.2a1.4 1.4.0 011.4 1.4z"/></svg>