<svg role="img" viewBox="0 0 24 24" xmlns="http://www.w3.org/2000/svg"><style>path { fill: #4250AF; }</style><title>Immich</title><path d="M8.973 23.785c.209.018.265.022.465.0a2.505 2.505.0 002.238-2.034c.03-.151.04-.311.065-1.188.018-.556.04-1.103.043-1.22l.011-.257-.115.103a.71.71.0 01-.287.151.317.317.0 01-.166.004c-.032-.01-.14-.031-.25-.044-1.198-.155-2.457-.696-3.432-1.474a5.312 5.312.0 01-.593-.528 6.956 6.956.0 01-1.426-1.994l-.119-.245.004-.132a.606.606.0 01.046-.23.555.555.0 00.027-.073.063.063.0 00.002-.022.028.028.0 00-.012-.02c-.006-.005-.016-.007-.028-.005-.074.018-2.358.855-2.41.881-.317.161-.674.487-.891.813a2.484 2.484.0 00-.21 2.408c.096.221.46.727.84 1.19a11.958 11.958.0 005.776 3.82c.183.053.326.088.422.096zm5.571-.008c.322.03.514.008.862-.1a11.955 11.955.0 006.414-4.64c.183-.257.235-.353.31-.57.103-.305.125-.44.125-.813.0-.283-.004-.357-.035-.492a2.54 2.54.0 00-.817-1.382 2.35 2.35.0 00-.43-.304 135.192 135.192.0 00-2.458-.903c-.012-.002-.018.004-.02.006l-.006.006v.01c0 .001.0.006.004.013l.037.09c.037.079.041.108.041.237v.15l-.148.297a7.162 7.162.0 01-5.469 3.931c-.1.013-.203.03-.23.034a.309.309.0 01-.122-.016.73.73.0 01-.227-.113l-.134-.105v.126c0 .043.017.604.039 1.246.043 1.272.048 1.307.143 1.596.178.526.53.983 1.004 1.304.109.074.396.213.544.266.165.056.4.108.573.126zm-3.726-5.327a4.728 4.728.0 01-.463-.102A6.368 6.368.0 016.49 15.381a1.77 1.77.0 01-.067-.125l.017.014a.403.403.0 00.2.074.354.354.0 00.332-.37.603.603.0 00-.434-.547.591.591.0 00-.756.568c0 .107.004.12.106.316a6.76 6.76.0 001.318 1.79c.234.228.385.362.61.535a6.938 6.938.0 003.099 1.34l.255.035h.002a.395.395.0 00.208-.066.687.687.0 00.256-.282c.04-.081.045-.112.045-.238a.44.44.0 00-.045-.238c-.112-.236-.38-.392-.622-.356-.166.025-.28.12-.325.234-.045.115-.019.25.099.355l.03.03zm6.762-3.195a2.067 2.067.0 01-.062.117 6.36 6.36.0 01-3.452 2.839 7.276 7.276.0 01-.867.23.394.394.0 01.026-.025.295.295.0 00.123-.22c.01-.066.001-.094-.036-.168a.356.356.0 00-.274-.197.618.618.0 00-.644.335.644.644.0 00-.022.456.62.62.0 00.348.362c.08.03.116.028.36-.012a6.879 6.879.0 005.067-3.713c.102-.206.105-.21.097-.309a.614.614.0 00-.349-.491c-.094-.045-.12-.05-.25-.05a.457.457.0 00-.246.045.624.624.0 00-.342.44.376.376.0 00.072.322c.12.134.314.156.443.045l.008-.006zm-1.77.198a.05.05.0 01.008-.001 1.685 1.685.0 00.156-.067.968.968.0 00.423-.428.856.856.0 00.106-.449.985.985.0 00-.49-.842h.001c-.034-.02-.734-.255-1.551-.523l-1.499-.488-.051.083a1.561 1.561.0 01-.106.144l-.071.087.047.069c.024.037.308.428.634.88.33.454.478.659.544.763.04.063.047.085.047.107a.124.124.0 01-.069.116.117.117.0 01-.128-.02 20.71 20.71.0 01-.652-.88l-.622-.86c-.004-.003-.012-.008-.025-.007a.417.417.0 00-.094.033c-.05.016-.122.042-.164.05l-.095.021v3.218l.04.116a1.016 1.016.0 00.67.63c.15.048.392.04.555-.013a1.03 1.03.0 00.49-.349l.015-.022.12.12c.193.193.386.294.628.333.29.044.592-.039.878-.25.303-.223.465-.535.465-.891a1.004 1.004.0 00-.171-.602.344.344.0 01-.037-.07.05.05.0 01-.002-.008zm-7.63.0a.14.14.0 01-.003.014.541.541.0 01-.035.069c-.303.5-.184 1.124.29 1.48.184.14.359.219.565.258.092.018.313.005.437-.035a1.15 1.15.0 00.614-.418l.011-.016.077.083a1 1 0 00.602.326c.15.026.287.013.45-.044a.98.98.0 00.56-.494c.108-.225.11-.186.11-1.905v-1.539l-.06-.012a2.697 2.697.0 01-.28-.089.025.025.0 00-.018-.001.098.098.0 00-.035.027c-.062.067-.233.298-.62.83-.276.379-.52.71-.621.837l-.042.05a.128.128.0 01-.084.028.121.121.0 01-.078-.039l-.023-.023a.051.051.0 01-.015-.027c-.003-.023.008-.053.04-.108.07-.122.236-.351.578-.822.337-.47.624-.864.638-.884.009-.012.012-.026.004-.045a.337.337.0 00-.057-.08 1.875 1.875.0 01-.102-.14.343.343.0 00-.05-.066.032.032.0 00-.02-.009.044.044.0 00-.01.002 303.377 303.377.0 00-2.99.978l-.002.002H8.01c-.017.014-.069.048-.112.078-.26.194-.419.53-.397.855a.97.97.0 00.596.842l.072.032.012.006zm13.038-.626a2.488 2.488.0 002.674-1.708c.1-.304.108-.382.108-.946a11.967 11.967.0 00-2.473-7.278c-.178-.24-.3-.353-.535-.51a2.495 2.495.0 00-2.678-.052c-.143.087-.335.24-.448.357-.057.057-.415.501-.799.997-.387.495-.723.926-.753.96l-.083.104.166-.012a.682.682.0 01.334.058.92.92.0 01.14.117c.165.152.42.412.56.572a7.227 7.227.0 011.537 2.968c.24.958.275 1.964.108 2.939a3.147 3.147.0 00-.035.253.365.365.0 01-.067.169.674.674.0 01-.236.226l-.119.06.162.044c.979.29 2.347.669 2.437.682zM4.967 13.669a.06.06.0 00.002-.017.831.831.0 00-.02-.122c-.137-.636-.162-1.52-.068-2.247A7.154 7.154.0 016.12 8.07c.253-.37.52-.679.872-1.027.223-.219.243-.237.332-.266a.758.758.0 01.239-.03.785.785.0 00.12-.006.083.083.0 00.027-.009.024.024.0 00.013-.02.023.023.0 00-.007-.018l-.77-.99c-.652-.838-.782-.998-.903-1.101a2.473 2.473.0 00-.552-.374 2.498 2.498.0 00-2.817.434c-.142.135-.506.623-.787 1.065a12.024 12.024.0 00-1.822 5.21c-.07.649-.086 1.6-.034 1.864.06.29.187.617.339.864a2.523 2.523.0 001.686 1.139l.168.03c.096.018.445.01.58-.008.09-.013.579-.147 1.287-.35.625-.18 1.16-.336 1.19-.345l.1-.033-.11-.058a.737.737.0 01-.27-.283v-.001a.415.415.0 01-.033-.088zm11.689-5.822a.241.241.0 01.008.007 6.361 6.361.0 011.675 3.636c.044.376.032 1.262-.016 1.494a.336.336.0 00-.316-.234.352.352.0 00-.297.173.602.602.0 00.4.904.587.587.0 00.25.0h.001c.162-.045.318-.167.376-.292.027-.062.092-.5.114-.744a6.777 6.777.0 00-.696-3.653A6.612 6.612.0 0016.91 7.396c-.158-.161-.232-.231-.309-.261a.474.474.0 00-.19-.021.597.597.0 00-.464.956c.104.145.316.242.46.216a.38.38.0 00.231-.175.386.386.0 00.018-.264zM5.689 12.996a.252.252.0 01-.006-.03 7.787 7.787.0 01-.005-1.485 6.396 6.396.0 011.688-3.649.662.662.0 01-.007.05.314.314.0 00.079.293c.146.16.378.145.574-.037a.59.59.0 00.013-.854.613.613.0 00-.68-.12 1.04 1.04.0 00-.18.155c-.19.188-.47.507-.646.743a7.083 7.083.0 00-.994 1.863 6.908 6.908.0 00-.29 3.427c.027.17.054.22.166.327a.658.658.0 00.268.148.784.784.0 00.357-.036.694.694.0 00.318-.294c.045-.085.05-.108.05-.256.0-.13-.01-.175-.037-.233-.072-.16-.206-.258-.342-.258a.354.354.0 00-.314.217.227.227.0 01-.012.029zm5.398-1.333c.026-.039.073-.106.107-.149l.075-.09-.885-1.216c-.483-.664-.897-1.234-.927-1.268a1.082 1.082.0 00-.344-.256.97.97.0 00-1.278.463.941.941.0 00-.108.446v.001a.951.951.0 01-.086-.019 1.354 1.354.0 00-.516.0c-.425.11-.71.395-.838.846-.097.33-.03.7.171.972.115.153.3.298.47.364.027.011.059.027.075.035a.695.695.0 01-.042.08.987.987.0 00-.04.952c.12.243.393.459.658.516.132.026.286.026.423-.004.056-.013.742-.23 1.518-.484l1.42-.457.009-.402-1.037-.336a25.974 25.974.0 01-.95-.32 1.112 1.112.0 01-.08-.033l-.017-.008c-.022-.022-.028-.048-.028-.084a.12.12.0 01.03-.085.11.11.0 01.081-.032 74.632 74.632.0 012.049.645c.01.004.022.002.035-.007a.264.264.0 00.055-.07zm5.927.114a.302.302.0 01.056-.028c.19-.066.418-.25.533-.431.127-.202.188-.444.175-.672a1.59 1.59.0 00-.184-.578 1.164 1.164.0 00-.505-.449 1.244 1.244.0 00-.703-.066c-.04.01-.068.018-.088.02a.083.083.0 01-.016.0V9.57a.043.043.0 01-.002-.007c-.002-.013-.001-.03-.001-.054.0-.384-.313-.777-.71-.896a.984.984.0 00-.867.172c-.087.065-.205.22-1.022 1.344a88.604 88.604.0 00-.91 1.257.217.217.0 00-.014.023.022.022.0 00-.002.008c0 .003.0.009.005.017a.342.342.0 00.053.067c.025.03.066.092.091.134.022.04.044.071.054.082.01.01.018.01.021.01a.134.134.0 00.022-.004c.085-.026.505-.16 1.002-.32.489-.158.85-.27.996-.308a.425.425.0 01.061-.014c.035.0.063.012.082.032.02.021.03.052.03.089.0.039-.006.057-.03.078a.334.334.0 01-.053.023 27.03 27.03.0 01-1 .34l-.99.336v.199l-.046.202 1.389.454c.754.246 1.43.465 1.509.487.123.036.168.04.313.023a.923.923.0 00.656-.287.914.914.0 00.282-.665.937.937.0 00-.155-.56.424.424.0 01-.032-.056zM11.8 12.982a.805.805.0 00.767-.217.8.8.0 00.22-.766.85.85.0 00-.584-.588.994.994.0 00-.442.008.84.84.0 00-.544.554 1.045 1.045.0 000 .438c.08.27.314.5.583.571zm-.713-1.32zm-.245-4.348a2.465 2.465.0 01-.096-.019.975.975.0 00-1.194.943c0 .172.023.282.084.415.035.065.376.553.95 1.343a143.858 143.858.0 00.912 1.244.023.023.0 00.005.004l.005.002h.005c.001.0.007.0.016-.003.02-.007.074-.025.13-.046a.724.724.0 01.134-.038c.01-.001.018-.002.022.0l.004.001h.078v-1.133c-.006-.714-.008-.98.01-1.085.005-.028.01-.043.018-.051.01-.009.021-.01.036-.016.048-.023.103-.007.14.033l.001.002.053.034v1.087c-.012.747-.016.988-.006 1.065.004.035.014.046.022.05a.035.035.0 00.019.005c.016.0.073.017.135.038.064.022.13.043.147.048a.03.03.0 00.02-.001.11.11.0 00.034-.027c.07-.074.277-.354.892-1.2a47.74 47.74.0 00.937-1.326.847.847.0 00.105-.44.989.989.0 00-1.194-.952c-.047.01-.09.02-.11.023a.551.551.0 01-.006-.067c0-.053-.013-.15-.03-.216a1.117 1.117.0 00-.8-.8 1.553 1.553.0 00-.636.0 1.109 1.109.0 00-.83.985 1.114 1.114.0 01-.012.098zm-1.547-.878.007-.004c.128-.067.495-.215.752-.297a6.403 6.403.0 014.51.232c.061.026.119.052.153.07h-.007c-.203.005-.368.195-.336.379a.435.435.0 00.154.253c.232.21.581.198.81-.03a.58.58.0 00.049-.787.414.414.0 00-.094-.075 3.864 3.864.0 00-.5-.255A6.88 6.88.0 0012.67 5.36a8.444 8.444.0 00-1.323.0 6.775 6.775.0 00-2.126.558c-.514.224-.61.297-.684.494a.631.631.0 00.022.462.63.63.0 00.429.33.602.602.0 00.608-.268c.139-.212-.022-.499-.28-.499a.21.21.0 01-.021.0zm6.3-.473c.006.005.025.02.04.036.049.049.115.129.142.177.02.042.05.116.058.166l.027.147.723-1.07c.718-1.059.778-1.158.878-1.452.095-.287.117-.435.117-.779.0-.343-.022-.495-.117-.778a2.552 2.552.0 00-.957-1.269 1.79 1.79.0 00-.57-.283 12.156 12.156.0 00-3.15-.639 15.82 15.82.0 00-1.568.0A11.94 11.94.0 008.05.867c-.291.104-.34.126-.557.274a2.567 2.567.0 00-.808.926 2.5 2.5.0 00-.217 1.63c.034.165.121.421.19.565.032.066.372.584.756 1.149a92.034 92.034.0 00.7 1.011.02.02.0 00.027.004.025.025.0 00.009-.009.06.06.0 00.007-.014.154.154.0 00.008-.048c0-.035.02-.09.048-.148a.673.673.0 01.163-.222c.064-.047.613-.317.823-.407a7.282 7.282.0 014.854-.262 7.405 7.405.0 011.426.597.56.56.0 00.102.05.036.036.0 00.014.0z"/></svg>