<svg role="img" viewBox="0 0 24 24" xmlns="http://www.w3.org/2000/svg"><style>path { fill: #DB44B8; }</style><title>Infracost</title><path d="M15.5526.44419 8.04 7.98337h4.0299c2.7132.0 3.9501 2.56263 3.9501 4.00423V23.3593C16.02 23.7131 16.3058 24 16.6584 24h6.6633C23.6743 24 23.9601 23.7141 23.9606 23.3603 23.9652 20.0654 24 13.2819 24 7.98337 24 3.34017 20.3118.3341 16.6801.00515 16.2585-.03303 15.8518.14382 15.5526.44419zM0 .64C0 .28654.28797.0.6432.0h.804c.35523.0.6432.28654.6432.64V7.36c0 .35346-.28797.64-.6432.64H.6432C.28797 8 0 7.71346.0 7.36V.64zM3.618.0c-.35523.0-.6432.28654-.6432.64V7.36c0 .35346.28797.64.6432.64h.804C4.77723 8 5.0652 7.71346 5.0652 7.36V.64c0-.35346-.28797-.64-.6432-.64H3.618zM6.5928.0C6.23757.0 5.9496.28654 5.9496.64V7.36c0 .35346.28797.64.6432.64H8.04L6.32638 9.7051C6.08514 9.94514 5.9496 10.2707 5.9496 10.6102V23.36C5.9496 23.7135 6.23757 24 6.5928 24H7.3968C7.75203 24 8.04 23.7135 8.04 23.36V8 .64C8.04.28654 7.75203.0 7.3968.0H6.5928zM.37678 15.6251C.13553 15.8651.0 16.1907.0 16.5302V23.36C0 23.7135.28797 24 .6432 24h.804C1.80243 24 2.0904 23.7135 2.0904 23.36V14.3063c0-.1426-.1732-.214-.27451-.113200000000001L.37678 15.6251zM2.9748 13.5702C2.9748 13.2307 3.11033 12.9051 3.35158 12.6651l1.43912-1.432C4.892 11.1323 5.0652 11.2037 5.0652 11.3463V23.36C5.0652 23.7135 4.77723 24 4.422 24H3.618C3.26277 24 2.9748 23.7135 2.9748 23.36V13.5702z"/></svg>