<svg role="img" viewBox="0 0 24 24" xmlns="http://www.w3.org/2000/svg"><style>path { fill: #6F02B5; }</style><title>KaiOS</title><path d="M17.3419 1e-4a3.6735 3.6735.0 00-3.647 3.6735 3.6727 3.6727.0 003.6735 3.6734 3.6735 3.6735.0 10-.0265-7.3469zM4.6233.16A2.7459 2.7459.0 001.8758 2.9073v18.167a2.7474 2.7474.0 105.4942.0V2.9071A2.749 2.749.0 004.6233.16zm6.9494 7.2078a2.729 2.729.0 00-2.237 4.2947l7.8107 11.1541a2.729 2.729.0 104.4706-3.1307L13.8062 8.5311a2.729 2.729.0 00-2.2335-1.1634z"/></svg>