<svg role="img" viewBox="0 0 24 24" xmlns="http://www.w3.org/2000/svg"><style>path { fill: #167C80; }</style><title>LineageOS</title><path d="M21.64526 12.05735a2.40391 2.40391.0 00-1.80293.7993l-.13823-.0541a17.80096 17.80096.0 00-2.86666-.8594 4.80782 4.80782.0 00-9.61565.0h-.13221a17.74687 17.74687.0 00-2.7645.83537l-.13822.05409a2.40391 2.40391.0 10.5589 1.06974 16.599 16.599.0 012.5782-.77526 4.80782 4.80782.0 009.35722.0 16.55693 16.55693.0 012.5782.76925 2.40391 2.40391.0 102.38588-1.839zM2.41397 15.6632a1.20196 1.20196.0 111.20196-1.20195A1.20196 1.20196.0 012.41397 15.6632zm9.61565.0a3.60587 3.60587.0 113.60586-3.60586 3.60587 3.60587.0 01-3.60586 3.60586zm9.61564.0a1.20196 1.20196.0 111.20196-1.20195 1.20196 1.20196.0 01-1.20196 1.20195zm-7.81271-3.60586a1.80293 1.80293.0 11-1.80293-1.80294 1.80293 1.80293.0 011.80293 1.80294z"/></svg>