<svg role="img" viewBox="0 0 24 24" xmlns="http://www.w3.org/2000/svg"><style>path { fill: #001729; }</style><title>Modin</title><path d="M6.4403 7.3914H8.506a.3583.3583.0 00.3536-.3536.3583.3583.0 00-.3536-.3583H6.4403a.3583.3583.0 100 .7119zm14.0794 7.0816a1.7402 1.7402.0 00-1.7727 1.7774 1.7727 1.7727.0 001.7727 1.796h1.703A1.7727 1.7727.0 0024 16.2735a1.7448 1.7448.0 00-1.7773-1.7774zm1.703-4.9506A1.7448 1.7448.0 0024 7.745a1.7727 1.7727.0 00-1.7773-1.7727h-1.703A1.7727 1.7727.0 0018.747 7.745a1.7402 1.7402.0 001.7727 1.7774zm-1.703.6979a1.7774 1.7774.0 00-1.7727 1.7774 1.7402 1.7402.0 001.7727 1.7774h1.703A1.7448 1.7448.0 0024 11.9977a1.7774 1.7774.0 00-1.7773-1.7728zm-4.8854 4.2527a1.7402 1.7402.0 00-1.7728 1.7774 1.768 1.768.0 001.7728 1.796h.6327a1.7727 1.7727.0 001.7774-1.7728A1.7448 1.7448.0 0016.267 14.473zm.6327-4.9506a1.7448 1.7448.0 001.7774-1.7774A1.7727 1.7727.0 0016.267 5.9723h-.6514A1.768 1.768.0 0013.843 7.745a1.7402 1.7402.0 001.7727 1.7774zm-.6514.6979a1.7774 1.7774.0 00-1.754 1.7774 1.7402 1.7402.0 001.7727 1.7774h.6327a1.7448 1.7448.0 001.796-1.7774 1.7774 1.7774.0 00-1.796-1.7774zM3.9138 8.8244h1.033a.3536.3536.0 00.3582-.3536.363.363.0 00-.3583-.3582H3.9324a.3536.3536.0 000 .7072zm-3.15-2.131h.2699a.3536.3536.0 00.3583-.3536.363.363.0 00-.3583-.3582H.7638a.3536.3536.0 000 .7072zm5.6765 9.9106H8.506a.3536.3536.0 01.3536.3536.3583.3583.0 01-.3536.3583H6.4403a.3583.3583.0 110-.712zm-2.5079-1.4191h1.033a.3536.3536.0 110 .7072h-1.033a.3536.3536.0 010-.7072zm-3.15 2.131h.2699a.3536.3536.0 01.3583.3536.363.363.0 01-.3583.3582H.7824a.3536.3536.0 010-.7072zm1.5867.7304h9.0264a1.7727 1.7727.0 001.7728-1.7727 1.7402 1.7402.0 00-1.7728-1.7774H1.6944a.3583.3583.0 000 .712h.9306a.3536.3536.0 010 .7072H.3172a.3583.3583.0 000 .7118H5.17a.3583.3583.0 010 .712H2.3784a.3536.3536.0 00-.3397.3535.3583.3583.0 00.3536.3583zm4.0712-6.3883H8.506a.3536.3536.0 00.3536-.3536.3583.3583.0 00-.3536-.3583H6.4403a.363.363.0 00-.3583.3583.3583.3583.0 00.3583.3536zm-2.5079 1.4238h1.033a.3583.3583.0 100-.7119h-1.033a.3536.3536.0 00-.3536.3536.3583.3583.0 00.3536.3583zm-3.15-2.131h.2699a.3536.3536.0 100-.7072H.7824a.3583.3583.0 00-.3536.3536.3583.3583.0 00.3536.3582zm1.5867-.7119h9.0264a1.7774 1.7774.0 011.7728 1.7588 1.7402 1.7402.0 01-1.7728 1.7774H1.6944a.3536.3536.0 010-.7073h.9306a.3583.3583.0 00.3536-.3582.3583.3583.0 00-.3536-.3537H.3172a.3583.3583.0 010-.7118H5.17a.3583.3583.0 000-.712H2.3784a.3583.3583.0 010-.7118zm0-4.2527h9.0264a1.7727 1.7727.0 011.7728 1.7727 1.7402 1.7402.0 01-1.7728 1.7774H1.6944a.3583.3583.0 01-.3536-.3536.3536.3536.0 01.3396-.3583h.9306a.3536.3536.0 000-.7072H.3172a.3583.3583.0 010-.7119H5.17a.3583.3583.0 000-.7118H2.3784a.3536.3536.0 01-.3397-.3537.3583.3583.0 01.3304-.3908z"/></svg>