<svg role="img" viewBox="0 0 24 24" xmlns="http://www.w3.org/2000/svg"><style>path { fill: #6F53F3; }</style><title>Moonrepo</title><path d="M19.514 7.342C19.711 7.862 19.814 8.413 19.816 8.969c0 3.525-3.818 5.728-6.87 3.965-1.417-.818-2.289-2.329-2.289-3.965.0-3.323 3.428-5.538 6.458-4.176-1.855-1.42-4.125-2.186-6.46-2.181C4.772 2.614.005 7.381.0 13.265.002 19.148 4.772 23.918 10.655 23.92 16.538 23.916 21.306 19.147 21.31 13.265 21.312 11.155 20.687 9.095 19.514 7.342zM14.841 4.666c0 3.525 3.816 5.729 6.868 3.966C23.127 7.814 24 6.302 24 4.666 24 1.14 20.184-1.061 17.13.699c-1.416.82-2.289 2.331-2.289 3.967"/></svg>