<svg role="img" viewBox="0 0 24 24" xmlns="http://www.w3.org/2000/svg"><style>path { fill: #4285F4; }</style><title>Plus Codes</title><path d="M12 0A2.4 2.4.0 009.6 2.4 2.4 2.4.0 0012 4.8a2.4 2.4.0 002.4-2.4A2.4 2.4.0 0012 0zM9.543 9.543v4.914h4.914V9.543zM2.4 9.6A2.4 2.4.0 000 12a2.4 2.4.0 002.4 2.4A2.4 2.4.0 004.8 12 2.4 2.4.0 002.4 9.6zm19.2.0A2.4 2.4.0 0019.2 12a2.4 2.4.0 002.4 2.4A2.4 2.4.0 0024 12a2.4 2.4.0 00-2.4-2.4zM12 19.2a2.4 2.4.0 00-2.4 2.4A2.4 2.4.0 0012 24a2.4 2.4.0 002.4-2.4A2.4 2.4.0 0012 19.2z"/></svg>