<svg role="img" viewBox="0 0 24 24" xmlns="http://www.w3.org/2000/svg"><style>path { fill: #742774; }</style><title>Power Apps</title><path d="M19.012 18.027 14.261 23.21C14.072 23.417 13.803 23.535 13.523 23.535 13.242 23.535 12.974 23.417 12.784 23.21L8.636 18.685C8.286 18.304 8.286 17.712 8.636 17.332l4.266-4.655c.349-.381.349-.972999999999999.0-1.354L8.636 6.668c-.35-.38-.35-.972.0-1.353L12.784.79C12.974.583 13.242.465 13.523.465 13.803.465 14.072.583 14.261.79l4.751 5.183C18.598 5.977 18.203 6.153 17.924 6.459l-3.84 4.188C13.387 11.409 13.387 12.591 14.084 13.353l3.84 4.188C18.217 17.861 18.614 18.023 19.012 18.027zm-7.613 4.411L10.772 23.154C10.582 23.372 10.307 23.496 10.018 23.496 9.73 23.496 9.455 23.372 9.265 23.154L.371 12.989C-.124 12.426-.124 11.574.371 11.011L9.265.846c.19-.218.465-.342.753-.342.289.0.564.124.754.342L11.399 1.562 8.268 4.978c-.525.57-.525 1.458.0 2.028l4.266 4.655C12.708 11.852 12.708 12.148 12.534 12.339L8.268 16.994c-.525.57-.525 1.458.0 2.028l3.131 3.416zm8.357-5.222C19.567 17.414 19.304 17.527 19.03 17.527 18.749 17.527 18.482 17.409 18.292 17.203l-3.839-4.188c-.523-.571-.523-1.459.0-2.03l3.839-4.188C18.482 6.591 18.749 6.473 19.03 6.473 19.304 6.473 19.567 6.586 19.756 6.784l3.85 4.201C24.131 11.556 24.131 12.444 23.606 13.015l-3.85 4.201z"/></svg>