<svg role="img" viewBox="0 0 24 24" xmlns="http://www.w3.org/2000/svg"><style>path { fill: #673AB8; }</style><title>Preact</title><path d="M12 10.406A1.594 1.594.0 0010.406 12 1.594 1.594.0 0012 13.594 1.594 1.594.0 0013.594 12 1.594 1.594.0 0012 10.406zm5.499-4.33a2.998 2.998.0 01.643.054 1.668 1.668.0 01.48.172 1.085 1.085.0 01.29.235 1.032 1.032.0 01.185.315 1.454 1.454.0 01.084.452c.007.195-.015.398-.058.603-.054.261-.14.521-.244.778-.137.334-.304.66-.49.978-.245.417-.52.818-.817 1.207-.145.191-.3.376-.455.561-.22-.238-.443-.472-.673-.7a23.61 23.61.0 00-2.05-1.797l-.23.296.23-.296-.018-.014-.461.592.018.014a22.864 22.864.0 011.984 1.74c.241.237.475.48.703.73-.099.108-.194.22-.296.326-.099.104-.2.207-.301.308l.53.53c.106-.105.21-.212.313-.32.085-.088.164-.182.248-.272.065.078.135.152.198.231a13.317 13.317.0 01.909 1.262c.211.336.404.681.564 1.036a5.23 5.23.0 01.293.806 3.019 3.019.0 01.102.637c.008.178-.007.351-.05.508-.034.123-.087.239-.157.338h-.001c-.068.098-.157.186-.26.256-.121.083-.264.146-.418.191-.188.054-.39.081-.6.09-.266.01-.538-.01-.814-.05-.357-.051-.713-.134-1.067-.238-.464-.137-.92-.307-1.369-.5h-.001c-.584-.253-1.153-.543-1.71-.86L12.708 16.26c.578-.377 1.144-.77 1.686-1.194l-.21-.27.211.27.018-.015-.463-.59-.017.014c-.695.542-1.418 1.047-2.168 1.505A18.53 18.53.0 019.938 16.963C9.465 17.182 8.984 17.378 8.494 17.539A8.68 8.68.0 017.352 17.835C7.066 17.887 6.781 17.921 6.499 17.925 6.277 17.928 6.061 17.912 5.856 17.87 5.681 17.834 5.518 17.778 5.376 17.698 5.265 17.635 5.166 17.556 5.086 17.464 5.007 17.373 4.944 17.265 4.901 17.149 4.85 17.012 4.823 16.857 4.817 16.696a2.54 2.54.0 01.058-.603c.055-.261.14-.52.245-.777a7.704 7.704.0 01.49-.978 12.09 12.09.0 011.271-1.767c.232.251.469.497.712.737a23.645 23.645.0 002.02 1.765l.461-.591A22.9 22.9.0 018.119 12.773C7.865 12.523 7.618 12.267 7.378 12.004 7.477 11.896 7.573 11.785 7.673 11.679 7.776 11.572 7.879 11.466 7.983 11.362l-.53-.53C7.345 10.94 7.238 11.05 7.132 11.16 7.047 11.249 6.967 11.343 6.884 11.433 6.829 11.367 6.77 11.305 6.715 11.238 6.386 10.832 6.077 10.411 5.799 9.975 5.585 9.637 5.391 9.292 5.228 8.935 5.102 8.66 4.995 8.38 4.92 8.097 4.863 7.882 4.826 7.669 4.818 7.46A1.67 1.67.0 014.868 6.953C4.902 6.829 4.955 6.714 5.025 6.614H5.026C5.094 6.516 5.184 6.428 5.286 6.358A1.446 1.446.0 015.705 6.168C5.892 6.113 6.094 6.086 6.304 6.078a4.545 4.545.0 01.814.048 7.708 7.708.0 011.067.24 12.092 12.092.0 011.369.5 17.248 17.248.0 011.736.874A24.003 24.003.0 009.596 8.942l.462.59c.683-.534 1.393-1.031 2.13-1.484.594-.363 1.203-.697 1.83-.99.474-.222.956-.42 1.448-.583a8.816 8.816.0 011.146-.303C16.91 6.116 17.207 6.08 17.499 6.076zm-.01-.75h-.001C17.142 5.331 16.804 5.373 16.474 5.434a9.546 9.546.0 00-1.245.329A14.202 14.202.0 0013.7 6.379C13.117 6.651 12.554 6.961 12.004 7.289 11.883 7.216 11.761 7.144 11.637 7.074c-.577-.329-1.171-.632-1.785-.897C9.38 5.974 8.897 5.792 8.397 5.646 8.017 5.534 7.625 5.442 7.225 5.384 6.916 5.34 6.599 5.316 6.275 5.329 6.021 5.339 5.759 5.372 5.499 5.446 5.281 5.51 5.063 5.602 4.863 5.74A1.774 1.774.0 004.146 6.754C4.078 7.001 4.059 7.251 4.069 7.491a3.728 3.728.0 00.127.798 6.016 6.016.0 00.351.959 9.548 9.548.0 00.62 1.128 14.203 14.203.0 00.967 1.335c.08.098.166.19.248.286C6.193 12.219 6.007 12.443 5.83 12.676c-.311.408-.604.834-.867 1.282a8.44 8.44.0 00-.538 1.075A5.28 5.28.0 004.142 15.941C4.089 16.19 4.059 16.453 4.069 16.723a2.182 2.182.0 00.13.688v.001a1.775 1.775.0 00.81.94 2.403 2.403.0 00.697.253 3.699 3.699.0 00.805.07 5.97 5.97.0 00.977-.102l.001-.001a9.412 9.412.0 001.24-.32c.523-.173 1.031-.38 1.526-.61.599-.278 1.178-.593 1.742-.93.121.072.243.144.366.214a17.99 17.99.0 001.785.898 12.832 12.832.0 001.455.53c.38.112.772.204 1.172.262a5.284 5.284.0 00.95.056c.254-.01.516-.044.776-.118.218-.063.436-.156.636-.294a1.775 1.775.0 00.717-1.014c.068-.248.087-.497.077-.736-.011-.277-.06-.544-.127-.799-.085-.322-.202-.629-.335-.923-.178-.393-.387-.767-.612-1.127-.294-.466-.618-.908-.959-1.333-.09-.111-.188-.216-.28-.324.189-.222.374-.447.552-.679.311-.409.604-.835.867-1.283a8.441 8.441.0 00.538-1.075A5.277 5.277.0 0019.858 8.06C19.911 7.81 19.941 7.547 19.931 7.277 19.924 7.051 19.886 6.817 19.801 6.589V6.588a1.775 1.775.0 00-.81-.94C18.767 5.522 18.529 5.444 18.294 5.396A3.7 3.7.0 0017.489 5.326zM12 0 22.392 6V18L12 24 1.607 18V6z"/></svg>