<svg role="img" viewBox="0 0 24 24" xmlns="http://www.w3.org/2000/svg"><style>path { fill: #018EF5; }</style><title>ReadMe</title><path d="M22.0113 3.269h-5.8219A4.2894 4.2894.0 0012.004 6.6142 4.2894 4.2894.0 007.8186 3.269h-5.818A2.0007 2.0007.0 000 5.2697v10.2434a2.0007 2.0007.0 002.0007 2.0007h3.7372c4.2574.0 5.5299 1.0244 6.138 3.133a.112.112.0 00.1121.084h.024a.112.112.0 00.112-.084c.6122-2.1086 1.8847-3.133 6.138-3.133h3.7373A2.0007 2.0007.0 0024 15.5131V5.2697a2.0007 2.0007.0 00-1.9887-2.0006zm-11.928 11.0557a.144.144.0 01-.144.144H3.2571a.144.144.0 01-.144-.144v-.9523a.144.144.0 01.144-.144h6.6822a.144.144.0 01.144.144zm0-2.5368a.144.144.0 01-.144.144H3.2571a.144.144.0 01-.144-.144v-.9523a.144.144.0 01.144-.144h6.6822a.144.144.0 01.144.144zm0-2.5368a.144.144.0 01-.144.144H3.2571a.144.144.0 01-.144-.144v-.9524a.144.144.0 01.144-.144h6.6822a.144.144.0 01.144.144zm10.8037 5.0696a.144.144.0 01-.144.144h-6.6823a.144.144.0 01-.144-.144v-.9523a.144.144.0 01.144-.144h6.6822a.144.144.0 01.144.144zm0-2.5368a.144.144.0 01-.144.144h-6.6823a.144.144.0 01-.144-.144v-.9523a.144.144.0 01.144-.144h6.6822a.144.144.0 01.144.144zm0-2.5368a.144.144.0 01-.144.144h-6.6823a.144.144.0 01-.144-.144v-.9484a.144.144.0 01.144-.144h6.6822a.144.144.0 01.144.144v.9524z"/></svg>