<svg role="img" viewBox="0 0 24 24" xmlns="http://www.w3.org/2000/svg"><style>path { fill: #46E3B7; }</style><title>Render</title><path d="M13.586.0v3.172H7.523A4.528 4.528.0 004.505 4.477a4.498 4.498.0 00-1.333 2.99v11.326H0V7.509a7.472 7.472.0 012.204-5.305A7.471 7.471.0 014.588.589 7.432 7.432.0 017.51.0zm5.207.0v3.158H15.62V0zM24 0v3.158h-3.172V0zm0 5.207v3.172h-3.172V5.207zm0 5.207v3.172h-3.172v-3.172zm0 5.207v3.172h-3.172V15.62zm0 5.207V24h-3.172v-3.172zm-5.207.0V24H15.62v-3.172zm-5.207.0V24h-3.172v-3.172zm-5.207.0V24H5.207v-3.172zm-5.221.0V24H0v-3.172z"/></svg>