<svg role="img" viewBox="0 0 24 24" xmlns="http://www.w3.org/2000/svg"><style>path { fill: #D7E600; }</style><title>smart</title><path d="M10.85.846A11.138 11.138.0 000 11.979v.04a11.136 11.136.0 0010.844 11.135h.283a10.983 10.983.0 004.041-.758.395.395.0 00.256-.369v-5.564a.21.21.0 00-.274-.195c-1.202.489-2.215.957-3.96.957a5.222 5.222.0 01-5.22-5.22 5.22 5.22.0 015.22-5.22c1.745.0 2.758.467 3.96.955a.21.21.0 00.274-.193V1.979a.395.395.0 00-.256-.37A10.983 10.983.0 0011.131.846zm5.863 1.82v18.67a.238.238.0 00.377.19c3.413-2.122 6.91-8.16 6.91-9.52s-3.497-7.396-6.91-9.522a.238.238.0 00-.377.182z"/></svg>