<svg role="img" viewBox="0 0 24 24" xmlns="http://www.w3.org/2000/svg"><style>path { fill: #9945FF; }</style><title>Solana</title><path d="m23.8764 18.0313-3.962 4.1393a.9201.9201.0 01-.306.2106.9407.9407.0 01-.367.0742H.4599a.4689.4689.0 01-.2522-.0733.4513.4513.0 01-.1696-.1962.4375.4375.0 01-.0314-.2545.4438.4438.0 01.117-.2298l3.9649-4.1393a.92.92.0 01.3052-.2102.9407.9407.0 01.3658-.0746H23.54a.4692.4692.0 01.2523.0734.4531.4531.0 01.1697.196.438.438.0 01.0313.2547.4442.4442.0 01-.1169.2297zm-3.962-8.3355a.9202.9202.0 00-.306-.2106.941.941.0 00-.367-.0742H.4599a.4687.4687.0 00-.2522.0734.4513.4513.0 00-.1696.1961.4376.4376.0 00-.0314.2546.444.444.0 00.117.2297l3.9649 4.1394a.9204.9204.0 00.3052.2102c.1154.049.24.0744.3658.0746H23.54a.469.469.0 00.2523-.0734.453.453.0 00.1697-.1961.4382.4382.0 00.0313-.2546.4444.4444.0 00-.1169-.2297zM.46 6.7225h18.7815a.9411.9411.0 00.367-.0742.9202.9202.0 00.306-.2106l3.962-4.1394a.4442.4442.0 00.117-.2297.4378.4378.0 00-.0314-.2546.453.453.0 00-.1697-.196.469.469.0 00-.2523-.0734H4.7596a.941.941.0 00-.3658.0745.9203.9203.0 00-.3052.2102L.1246 5.9687a.4438.4438.0 00-.1169.2295.4375.4375.0 00.0312.2544.4512.4512.0 00.1692.196.4689.4689.0 00.2518.0739z"/></svg>