<svg role="img" viewBox="0 0 24 24" xmlns="http://www.w3.org/2000/svg"><style>path { fill: #03234B; }</style><title>STMicroelectronics</title><path d="M23.818 5.61H6.402C5.125 5.609 3.968 6.362 3.452 7.529L.014 15.811C-.036 15.931.052 16.063.182 16.061H8.046C8.601 16.061 8.848 15.523 8.412 15.093L5.524 12.388C4.008 10.9 4.658 7.45 7.81 7.45H23.206C23.283 7.451 23.352 7.402 23.378 7.329L23.987 5.857C23.996 5.835 24.001 5.811 24 5.787 23.997 5.689 23.917 5.61 23.818 5.61M22.082 9.826H19.126C18.932 9.825 18.756 9.94 18.681 10.118l-3.312 8C15.355 18.144 15.347 18.173 15.347 18.202 15.348 18.302 15.429 18.383 15.529 18.381h1.103C17.93 18.387 19.105 17.613 19.612 16.418l2.632-6.355C22.252 10.042 22.257 10.019 22.257 9.996 22.253 9.902 22.176 9.828 22.082 9.826m-5.811.179C16.271 9.905 16.189 9.825 16.089 9.825H7.706C7.251 9.825 6.853 10.38 7.335 10.825l2.769 2.579S11.224 14.437 10.984 15.916c-.206 1.303-1.095 2.1-1.743 2.386C9.208 18.31 9.196 18.351 9.219 18.376 9.23 18.387 9.246 18.392 9.261 18.388h3.228C12.683 18.39 12.859 18.275 12.934 18.095l3.322-8.027C16.266 10.049 16.271 10.027 16.271 10.005"/></svg>