<svg role="img" viewBox="0 0 24 24" xmlns="http://www.w3.org/2000/svg"><style>path { fill: #000000; }</style><title>TeamCity</title><path d="m0 0v24h24V0zm2.664 2.964h7.48v1.832H7.396v7.196H5.412V4.796H2.664zm9.328 18h-9v-1.5h9zm5.56391-9.21826A4.62 4.62.0 0115.52 12.12a4.556 4.556.0 01-4.628-4.616V7.48A4.584 4.584.0 0115.6 2.812 4.65561 4.65561.0 0119.16 4.2l-1.264 1.456a3.33594 3.33594.0 00-2.312-1.02 2.67116 2.67116.0 00-2.616 2.8v.028a2.68058 2.68058.0 002.616 2.836 3.22606 3.22606.0 002.376-1.056l1.264 1.276a4.61947 4.61947.0 01-1.66809 1.22573z"/></svg>