<svg role="img" viewBox="0 0 24 24" xmlns="http://www.w3.org/2000/svg"><style>path { fill: #EC4815; }</style><title>Tina</title><path d="M14.46 10.662C15.626 9.697 16.143 3.996 16.648 1.947 17.153-.103 19.241.001 19.241.001S18.699.945 18.92 1.649C19.141 2.353 20.656 2.982 20.656 2.982L20.329 3.843S19.647 3.756 19.241 4.568C18.835 5.38 19.502 13.421 19.502 13.421s-2.44 4.813-2.44 6.845c0 2.032.962 3.734.962 3.734h-1.35s-1.98-2.356-2.386-3.533C13.882 19.289 14.045 18.112 14.045 18.112s-2.152-.122-4.061.0C8.076 18.234 6.803 19.874 6.574 20.792 6.344 21.709 6.249 24 6.249 24H5.182c-.65-2.004-1.166-2.722-.886-3.734C5.072 17.462 4.919 15.872 4.74 15.164 4.56 14.456 3.345 13.838 3.345 13.838c.595-1.213 1.203-1.796 3.817-1.857C9.775 11.921 13.294 11.627 14.46 10.662zM9.277 18.871S9.413 22.579 10.669 24H9.413c-1.464-1.3-1.74-3.852-1.74-3.852C7.754 19.824 8.638 19.079 9.277 18.871z"/></svg>