<svg role="img" viewBox="0 0 24 24" xmlns="http://www.w3.org/2000/svg"><style>path { fill: #ED125F; }</style><title>VTEX</title><path d="M22.2027 1.7925H4.2812c-1.3897.0-2.2795 1.4698-1.6293 2.6917l1.7927 3.3773H1.1947a1.2 1.2.0 00-.5873.1537 1.1924 1.1924.0 00-.4356.421A1.1847 1.1847.0 00.1376 9.6045l5.766 10.858c.1017.191.2537.3507.4399.4622a1.1996 1.1996.0 001.2326.0 1.1913 1.1913.0 00.4398-.4623l1.566-2.933 1.9647 3.7006c.6914 1.3016 2.5645 1.304 3.2584.0038L23.7878 4.416c.635-1.1895-.2314-2.6235-1.5851-2.6235zM14.1524 8.978l-3.8733 7.2533a.7932.7932.0 01-.2927.3074.7986.7986.0 01-.82.0.7933.7933.0 01-.2927-.3074L5.0378 9.0086a.7883.7883.0 01.0208-.7776.7933.7933.0 01.2891-.281.7985.7985.0 01.3906-.1033h7.7307a.7769.7769.0 01.381.0998.7717.7717.0 01.2823.2736.7672.7672.0 01.02.758z"/></svg>