<svg role="img" viewBox="0 0 24 24" xmlns="http://www.w3.org/2000/svg"><style>path { fill: #0C54C2; }</style><title>XAML</title><path d="M6.3912 1.5373a.7847.7847.0 00-.679.3914l-5.6065 9.678a.7847.7847.0 000 .7867l5.6065 9.6779a.7847.7847.0 00.679.3914h11.2176c.28.0.5387-.1492.679-.3914l5.6065-9.678a.7847.7847.0 000-.7867l-5.6065-9.6779a.7848.7848.0 00-.679-.3914zm.0302.837h10.542l-5.2093 9.2112H5.9679l4.7196-8.1747a.1308.1308.0 00-.1132-.1962L7.5062 3.213a.2615.2615.0 00-.2266.1307l-4.7633 8.2419h-1.431zm11.3325.3025L23.1549 12l-5.3722 9.2735-5.2987-9.2784zm.1712 2.8248a.1295.1295.0 00-.1132.0665l-1.5186 2.689a.2616.2616.0 00.0013.2595l1.943 3.3611a.2615.2615.0 010 .2617l-1.9268 3.3375a.2616.2616.0 00-6e-4.2605l1.5272 2.6742c.05.0877.1763.088.2268 6e-4l3.5503-6.1431a.5231.5231.0 00-1e-4-.5238L18.039 5.567a.1295.1295.0 00-.1139-.0653zM1.09 12.4225h1.4363l4.7634 8.2314a.2616.2616.0 00.2262.1305l3.0718.0018a.1308.1308.0 00.1133-.1962l-4.7215-8.1675h5.7848l5.2557 9.2032H6.4214z"/></svg>