<svg role="img" viewBox="0 0 24 24" xmlns="http://www.w3.org/2000/svg"><style>path { fill: #FF0000; }</style><title>YouTube Shorts</title><path d="m18.931 9.99-1.441-.601 1.717-.913a4.48 4.48.0 001.874-6.078 4.506 4.506.0 00-6.09-1.874L4.792 5.929A4.504 4.504.0 002.39 10.122a4.521 4.521.0 002.666 3.904c.036.012 1.442.6 1.442.6l-1.706.901a4.51 4.51.0 00-2.369 3.967A4.528 4.528.0 006.93 24c.725.0 1.437-.174 2.08-.508l10.21-5.406a4.494 4.494.0 002.39-4.192A4.525 4.525.0 0018.932 9.99zm-9.334 5.2V8.824l6.007 3.184z"/></svg>